<svg width="18" height="18" viewBox="0 0 18 18" fill="none" xmlns="http://www.w3.org/2000/svg">
<path d="M15.3524 1.5001H2.64742C2.50461 1.49812 2.3628 1.52429 2.2301 1.57712C2.09739 1.62994 1.9764 1.7084 1.87402 1.80799C1.77164 1.90758 1.68988 2.02637 1.63342 2.15756C1.57695 2.28876 1.54688 2.42979 1.54492 2.5726V15.4276C1.54688 15.5704 1.57695 15.7115 1.63342 15.8426C1.68988 15.9738 1.77164 16.0926 1.87402 16.1922C1.9764 16.2918 2.09739 16.3703 2.2301 16.4231C2.3628 16.4759 2.50461 16.5021 2.64742 16.5001H15.3524C15.4952 16.5021 15.637 16.4759 15.7697 16.4231C15.9024 16.3703 16.0234 16.2918 16.1258 16.1922C16.2282 16.0926 16.31 15.9738 16.3664 15.8426C16.4229 15.7115 16.453 15.5704 16.4549 15.4276V2.5726C16.453 2.42979 16.4229 2.28876 16.3664 2.15756C16.31 2.02637 16.2282 1.90758 16.1258 1.80799C16.0234 1.7084 15.9024 1.62994 15.7697 1.57712C15.637 1.52429 15.4952 1.49812 15.3524 1.5001ZM6.06742 14.0551H3.81742V7.3051H6.06742V14.0551ZM4.94242 6.3601C4.63212 6.3601 4.33452 6.23684 4.11511 6.01742C3.89569 5.798 3.77242 5.50041 3.77242 5.1901C3.77242 4.8798 3.89569 4.58221 4.11511 4.36279C4.33452 4.14337 4.63212 4.0201 4.94242 4.0201C5.10719 4.00142 5.27405 4.01775 5.43208 4.06802C5.5901 4.11829 5.73573 4.20137 5.85941 4.31183C5.9831 4.42228 6.08207 4.55761 6.14982 4.70897C6.21758 4.86032 6.25261 5.02428 6.25261 5.1901C6.25261 5.35593 6.21758 5.51989 6.14982 5.67124C6.08207 5.8226 5.9831 5.95793 5.85941 6.06838C5.73573 6.17884 5.5901 6.26192 5.43208 6.31219C5.27405 6.36246 5.10719 6.37879 4.94242 6.3601ZM14.1824 14.0551H11.9324V10.4326C11.9324 9.5251 11.6099 8.9326 10.7924 8.9326C10.5394 8.93446 10.2931 9.01381 10.0865 9.15998C9.88003 9.30615 9.72328 9.51211 9.63742 9.7501C9.57873 9.92638 9.5533 10.112 9.56242 10.2976V14.0476H7.31242C7.31242 14.0476 7.31242 7.9126 7.31242 7.2976H9.56242V8.2501C9.76682 7.89543 10.0641 7.60324 10.4223 7.40501C10.7804 7.20677 11.1858 7.10999 11.5949 7.1251C13.0949 7.1251 14.1824 8.09261 14.1824 10.1701V14.0551Z" fill="#0E76A8"/>
</svg>
